# xmcd
#
# Track frame offsets: 
#        150
#        12157
#        29732
#        41036
#        51936
#        63083
#        74053
#        84548
#        94718
#        105399
#        115861
#        126627
#        138132
#        147834
#        158527
#        169064
#        179512
#        189742
#        202524
#        213147
#        225590
#        238642
#        250733
#        264027
#        273704
#
# Disc length: 3768 seconds
#
# Revision: 0
# Processed by: cddbd v1.5.2PL0 Copyright (c) Steve Scherf et al.
# Submitted via: ExactAudioCopyFreeDBPlugin 1.0
#
DISCID=5c0eb619
DTITLE=Various Artist - The Grand Ole Opry Story - CD4
DYEAR=2014
DGENRE=Country
TTITLE0=Johnny Cash - Home Of The Blues (1957)
TTITLE1=Jimmy Driftwood - The Battle Of New Orleans (1958)
TTITLE2=Don Gibson - Oh Lonesome Me (1958)
TTITLE3=Rusty and Doug - Hey Sheriff (1958)
TTITLE4=Billy Grammer - Gotta Travel On (1958)
TTITLE5=Stonewall Jackson - Life To Go (1958)
TTITLE6=Margie Bowes - Poor Old Heartsick Me (1959)
TTITLE7=Skeeter Davis - Set Him Free (1959)
TTITLE8=Hawkshaw Hawkins - Soldier's Joy (1959)
TTITLE9=Jan Howard - The One You Slip Around With (1959)
TTITLE10=Hank Locklin - Please Help Me I'm Falling (1960)
TTITLE11=Bill Anderson - The Tip Of My Fingers (1960)
TTITLE12=Connie Hall - It's Not Wrong (1960)
TTITLE13=Ray Sanders - A World So Full Of Love (1960)
TTITLE14=Billy Walker - I Wish You Love (1960)
TTITLE15=George Hamilton IV - Walk On The Wild Side Of Life (1960)
TTITLE16=The Browns - Send Me The Pillow That You Dream On (1960)
TTITLE17=Patsy Cline - I Fall To Pieces (1961)
TTITLE18=Leroy Van Dyke - Walk On By (1961)
TTITLE19=Patsy Cline w. The Jordanaires - Crazy (1961)
TTITLE20=Archie Campbell - Settin' My Tears To Music (1961)
TTITLE21=Loretta Lynn - Success (1962)
TTITLE22=Carl and Pearl Butler - Don't Let Me Cross Over (1962)
TTITLE23=Skeeter Davis and Porter Wagoner - There's Always One (Who Love
TTITLE23=s You a Lot) (1962)
TTITLE24=Ernest Ashworth - Everybody But Me (1962)
EXTD=
EXTT0=
EXTT1=
EXTT2=
EXTT3=
EXTT4=
EXTT5=
EXTT6=
EXTT7=
EXTT8=
EXTT9=
EXTT10=
EXTT11=
EXTT12=
EXTT13=
EXTT14=
EXTT15=
EXTT16=
EXTT17=
EXTT18=
EXTT19=
EXTT20=
EXTT21=
EXTT22=
EXTT23=
EXTT24=
PLAYORDER=
